<svg xmlns="http://www.w3.org/2000/svg" version="1.1" xmlns:xlink="http://www.w3.org/1999/xlink" xmlns:svgjs="http://svgjs.dev/svgjs" width="1000" height="1000" viewBox="0 0 1000 1000"><rect width="1000" height="1000" fill="#ffffff"></rect><g transform="matrix(0.7,0,0,0.7,149.57578126932663,282.1265587044535)"><svg viewBox="0 0 396 247" data-background-color="#ffffff" preserveAspectRatio="xMidYMid meet" height="623" width="1000" xmlns="http://www.w3.org/2000/svg" xmlns:xlink="http://www.w3.org/1999/xlink"><g id="tight-bounds" transform="matrix(1,0,0,1,0.23998663480665527,-0.09999999999999432)"><svg viewBox="0 0 395.52 247.2" height="247.2" width="395.52"><g><svg></svg></g><g><svg viewBox="0 0 395.52 247.2" height="247.2" width="395.52"><g><g><path xmlns="http://www.w3.org/2000/svg" d="M186.21 187.861v36.581h-166.832c-2.612 0-5.031-0.461-7.258-1.383-2.266-0.96-4.225-2.266-5.876-3.917-1.651-1.613-2.938-3.552-3.86-5.818-0.922-2.227-1.383-4.666-1.382-7.316l0-57.459 36.523 0v39.312zM1.002 22.758h36.523l0 75.893h-36.523zM394.518 187.861v36.581h-131.921c-5.069 0-10.6-0.883-16.591-2.65-6.03-1.805-11.598-4.743-16.706-8.814-5.108-4.071-9.371-9.371-12.789-15.9-3.418-6.529-5.127-14.517-5.127-23.964l0-24.565h36.581l0 24.565c0 4.762 1.267 8.411 3.802 10.945 2.535 2.535 6.241 3.802 11.118 3.802zM211.384 41.192c0-2.535 0.461-4.935 1.383-7.2 0.96-2.227 2.266-4.186 3.917-5.876 1.613-1.69 3.552-3.015 5.818-3.975 2.227-0.922 4.666-1.383 7.317-1.383h164.699v36.581h-146.553v39.312h-36.581z" fill="#ed1703" fill-rule="nonzero" stroke="none" stroke-width="1" stroke-linecap="butt" stroke-linejoin="miter" stroke-miterlimit="10" stroke-dasharray="" stroke-dashoffset="0" font-family="none" font-weight="none" font-size="none" text-anchor="none" style="mix-blend-mode: normal" data-fill-palette-color="tertiary"></path></g></g><g transform="matrix(1,0,0,1,0,102.19274984413339)"><svg viewBox="0 0 395.52 42.81450031173321" height="42.81450031173321" width="395.52"><g><svg viewBox="0 0 395.52 42.81450031173321" height="42.81450031173321" width="395.52"><g><svg viewBox="0 0 395.52 42.81450031173321" height="42.81450031173321" width="395.52"><g><svg viewBox="0 0 395.52 42.81450031173321" height="42.81450031173321" width="395.52"><g><svg viewBox="0 0 395.52 42.81450031173321" height="42.81450031173321" width="395.52"><g><svg viewBox="0 0 395.52 24.272304425663016" height="24.272304425663016" width="395.52"><g transform="matrix(1,0,0,1,0,0)"><svg width="395.52" viewBox="3.690000057220459 -35.5 586.3599853515625 35.9900016784668" height="24.272304425663016" data-palette-color="#ed1703"><path d="M35.84-6.35L35.84 0 6.88 0Q6.2 0 5.62-0.24 5.03-0.49 4.6-0.92 4.17-1.34 3.93-1.93 3.69-2.51 3.69-3.2L3.69-3.2 3.69-35.01 10.03-35.01 10.03-6.35 35.84-6.35ZM74.85-31.81L74.85 0 68.5 0 68.5-8.59 46.19-8.59 46.19 0 39.84 0 39.84-17.5Q39.84-21.34 41.16-24.56 42.48-27.78 44.82-30.1 47.17-32.42 50.36-33.72 53.56-35.01 57.35-35.01L57.35-35.01 71.65-35.01Q72.31-35.01 72.9-34.77 73.48-34.52 73.92-34.08 74.36-33.64 74.61-33.06 74.85-32.47 74.85-31.81L74.85-31.81ZM46.19-17.5L46.19-14.94 68.5-14.94 68.5-28.66 57.35-28.66Q57.05-28.66 56.11-28.58 55.17-28.49 53.94-28.15 52.71-27.81 51.34-27.1 49.97-26.39 48.83-25.15 47.68-23.9 46.93-22.03 46.19-20.17 46.19-17.5L46.19-17.5ZM115.86-10.3L115.86-10.3Q115.86-8.42 115.39-6.92 114.91-5.42 114.13-4.27 113.35-3.13 112.3-2.32 111.25-1.51 110.13-1 109-0.49 107.84-0.24 106.68 0 105.66 0L105.66 0 81.17 0 81.17-6.35 105.66-6.35Q107.49-6.35 108.5-7.42 109.52-8.5 109.52-10.3L109.52-10.3Q109.52-11.18 109.25-11.91 108.98-12.65 108.48-13.18 107.98-13.72 107.26-14.01 106.54-14.31 105.66-14.31L105.66-14.31 91.06-14.31Q89.52-14.31 87.74-14.86 85.96-15.41 84.43-16.63 82.91-17.85 81.89-19.82 80.88-21.8 80.88-24.66L80.88-24.66Q80.88-27.51 81.89-29.48 82.91-31.45 84.43-32.68 85.96-33.91 87.74-34.46 89.52-35.01 91.06-35.01L91.06-35.01 112.67-35.01 112.67-28.66 91.06-28.66Q89.25-28.66 88.24-27.56 87.23-26.46 87.23-24.66L87.23-24.66Q87.23-22.83 88.24-21.77 89.25-20.7 91.06-20.7L91.06-20.7 105.66-20.7 105.71-20.7Q106.73-20.68 107.88-20.42 109.03-20.17 110.16-19.63 111.3-19.09 112.32-18.27 113.35-17.46 114.14-16.31 114.94-15.16 115.4-13.67 115.86-12.18 115.86-10.3ZM149.92-20.7L149.92-14.31 129.88-14.31 129.88-20.7 149.92-20.7ZM152.78-6.35L152.78 0 129.88 0Q128.56 0 126.99-0.46 125.43-0.93 124.1-1.99 122.77-3.05 121.88-4.75 120.99-6.45 120.99-8.91L120.99-8.91 120.99-31.81Q120.99-32.47 121.23-33.06 121.48-33.64 121.9-34.08 122.33-34.52 122.92-34.77 123.5-35.01 124.19-35.01L124.19-35.01 152.78-35.01 152.78-28.66 127.34-28.66 127.34-8.91Q127.34-7.67 128-7.01 128.65-6.35 129.92-6.35L129.92-6.35 152.78-6.35ZM193.89-27.29L193.89-23.24Q193.89-21.07 193.35-19.36 192.81-17.65 191.9-16.35 190.98-15.04 189.78-14.11 188.59-13.18 187.28-12.59 185.98-11.99 184.65-11.72 183.32-11.45 182.14-11.45L182.14-11.45 195.4 0 185.59 0 172.35-11.45 167.79-11.45 167.79-17.8 182.14-17.8Q183.34-17.9 184.33-18.3 185.32-18.7 186.04-19.38 186.76-20.07 187.15-21.03 187.54-22 187.54-23.24L187.54-23.24 187.54-27.25Q187.54-27.78 187.4-28.06 187.27-28.34 187.06-28.48 186.86-28.61 186.62-28.64 186.39-28.66 186.2-28.66L186.2-28.66 165.25-28.66 165.25 0 158.9 0 158.9-31.81Q158.9-32.47 159.15-33.06 159.39-33.64 159.82-34.08 160.24-34.52 160.83-34.77 161.42-35.01 162.1-35.01L162.1-35.01 186.2-35.01Q188.32-35.01 189.78-34.24 191.25-33.47 192.17-32.31 193.08-31.15 193.48-29.81 193.89-28.47 193.89-27.29L193.89-27.29ZM206.65-35.01L206.65 0 200.3 0 200.3-35.01 206.65-35.01ZM250.82-20.85L250.82-14.16Q250.82-10.96 249.72-8.28 248.62-5.59 246.66-3.64 244.71-1.68 242.04-0.6 239.36 0.49 236.22 0.49L236.22 0.49 227.62 0.49Q224.47 0.49 221.79-0.6 219.1-1.68 217.15-3.64 215.19-5.59 214.08-8.28 212.97-10.96 212.97-14.16L212.97-14.16 212.97-20.85Q212.97-24.02 214.08-26.72 215.19-29.42 217.15-31.36 219.1-33.3 221.79-34.4 224.47-35.5 227.62-35.5L227.62-35.5 236.22-35.5Q239.36-35.5 242.04-34.4 244.71-33.3 246.66-31.36 248.62-29.42 249.72-26.72 250.82-24.02 250.82-20.85L250.82-20.85ZM244.47-14.16L244.47-20.85Q244.47-22.73 243.87-24.26 243.27-25.78 242.18-26.87 241.1-27.95 239.57-28.55 238.05-29.15 236.22-29.15L236.22-29.15 227.62-29.15Q225.77-29.15 224.24-28.55 222.71-27.95 221.62-26.87 220.52-25.78 219.92-24.26 219.32-22.73 219.32-20.85L219.32-20.85 219.32-14.16Q219.32-12.28 219.92-10.75 220.52-9.23 221.62-8.14 222.71-7.06 224.24-6.46 225.77-5.86 227.62-5.86L227.62-5.86 236.17-5.86Q238.02-5.86 239.55-6.46 241.07-7.06 242.17-8.14 243.27-9.23 243.87-10.75 244.47-12.28 244.47-14.16L244.47-14.16ZM302.13-20.7L302.13-14.31 282.08-14.31 282.08-20.7 302.13-20.7ZM304.98-6.35L304.98 0 282.08 0Q280.77 0 279.2-0.46 277.64-0.93 276.31-1.99 274.98-3.05 274.09-4.75 273.2-6.45 273.2-8.91L273.2-8.91 273.2-31.81Q273.2-32.47 273.44-33.06 273.69-33.64 274.11-34.08 274.54-34.52 275.13-34.77 275.71-35.01 276.4-35.01L276.4-35.01 304.98-35.01 304.98-28.66 279.55-28.66 279.55-8.91Q279.55-7.67 280.2-7.01 280.86-6.35 282.13-6.35L282.13-6.35 304.98-6.35ZM346.1-35.01L346.1-2.71Q346.1-2.03 345.84-1.44 345.58-0.85 345.16-0.43 344.73 0 344.14 0.24 343.56 0.49 342.9 0.49L342.9 0.49Q342.31 0.49 341.71 0.27 341.12 0.05 340.65-0.44L340.65-0.44 317.46-24.66 317.46 0 311.11 0 311.11-32.3Q311.11-33.28 311.66-34.07 312.21-34.86 313.06-35.25L313.06-35.25Q313.97-35.62 314.92-35.44 315.87-35.25 316.55-34.55L316.55-34.55 339.75-10.35 339.75-35.01 346.1-35.01ZM359.86-35.01L359.86-20.7 382.15-20.7 382.15-35.01 388.5-35.01 388.5 0 382.15 0 382.15-14.31 359.86-14.31 359.86 0 353.52 0 353.52-35.01 359.86-35.01ZM430.27-31.81L430.27 0 423.92 0 423.92-8.59 401.61-8.59 401.61 0 395.26 0 395.26-17.5Q395.26-21.34 396.58-24.56 397.9-27.78 400.24-30.1 402.58-32.42 405.78-33.72 408.98-35.01 412.77-35.01L412.77-35.01 427.07-35.01Q427.73-35.01 428.32-34.77 428.9-34.52 429.34-34.08 429.78-33.64 430.03-33.06 430.27-32.47 430.27-31.81L430.27-31.81ZM401.61-17.5L401.61-14.94 423.92-14.94 423.92-28.66 412.77-28.66Q412.47-28.66 411.53-28.58 410.59-28.49 409.36-28.15 408.13-27.81 406.76-27.1 405.39-26.39 404.24-25.15 403.1-23.9 402.35-22.03 401.61-20.17 401.61-17.5L401.61-17.5ZM472.63-35.01L472.63-2.71Q472.63-2.03 472.37-1.44 472.11-0.85 471.69-0.43 471.26 0 470.67 0.24 470.09 0.49 469.43 0.49L469.43 0.49Q468.84 0.49 468.24 0.27 467.65 0.05 467.18-0.44L467.18-0.44 443.99-24.66 443.99 0 437.64 0 437.64-32.3Q437.64-33.28 438.19-34.07 438.74-34.86 439.59-35.25L439.59-35.25Q440.5-35.62 441.45-35.44 442.4-35.25 443.09-34.55L443.09-34.55 466.28-10.35 466.28-35.01 472.63-35.01ZM511.34-6.35L511.34 0 488.44 0Q487.57 0 486.55-0.21 485.54-0.42 484.55-0.85 483.56-1.29 482.66-1.99 481.75-2.69 481.06-3.67 480.36-4.66 479.95-5.97 479.53-7.28 479.53-8.91L479.53-8.91 479.53-26.1Q479.53-26.98 479.74-27.99 479.95-29 480.39-29.99 480.83-30.98 481.53-31.88 482.24-32.79 483.23-33.48 484.22-34.18 485.51-34.59 486.81-35.01 488.44-35.01L488.44-35.01 511.34-35.01 511.34-28.66 488.44-28.66Q487.2-28.66 486.54-28 485.88-27.34 485.88-26.05L485.88-26.05 485.88-8.91Q485.88-7.69 486.55-7.02 487.22-6.35 488.44-6.35L488.44-6.35 511.34-6.35ZM546.13-20.7L546.13-14.31 526.09-14.31 526.09-20.7 546.13-20.7ZM548.99-6.35L548.99 0 526.09 0Q524.77 0 523.21-0.46 521.64-0.93 520.31-1.99 518.98-3.05 518.09-4.75 517.2-6.45 517.2-8.91L517.2-8.91 517.2-31.81Q517.2-32.47 517.45-33.06 517.69-33.64 518.12-34.08 518.54-34.52 519.13-34.77 519.72-35.01 520.4-35.01L520.4-35.01 548.99-35.01 548.99-28.66 523.55-28.66 523.55-8.91Q523.55-7.67 524.21-7.01 524.87-6.35 526.14-6.35L526.14-6.35 548.99-6.35ZM590.05-20.36L590.05-14.65Q590.05-11.45 588.94-8.76 587.83-6.08 585.88-4.14 583.92-2.2 581.24-1.1 578.55 0 575.4 0L575.4 0 558.26 0Q557.58 0 556.99-0.24 556.41-0.49 555.98-0.92 555.55-1.34 555.31-1.93 555.07-2.51 555.07-3.2L555.07-3.2 555.07-31.81Q555.07-32.47 555.31-33.06 555.55-33.64 555.98-34.08 556.41-34.52 556.99-34.77 557.58-35.01 558.26-35.01L558.26-35.01 575.4-35.01Q578.55-35.01 581.24-33.91 583.92-32.81 585.88-30.87 587.83-28.93 588.94-26.23 590.05-23.54 590.05-20.36L590.05-20.36ZM583.7-14.65L583.7-20.36Q583.7-22.22 583.1-23.75 582.51-25.29 581.41-26.38 580.31-27.47 578.78-28.06 577.26-28.66 575.4-28.66L575.4-28.66 561.41-28.66 561.41-6.35 575.4-6.35Q577.26-6.35 578.78-6.95 580.31-7.54 581.41-8.63 582.51-9.72 583.1-11.24 583.7-12.77 583.7-14.65L583.7-14.65Z" opacity="1" transform="matrix(1,0,0,1,0,0)" fill="#ed1703" class="undefined-text-0" data-fill-palette-color="primary" id="text-0"></path></svg></g></svg></g><g transform="matrix(1,0,0,1,0,27.814216176673465)"><svg viewBox="0 0 395.52 15.000284135059745" height="15.000284135059745" width="395.52"><g transform="matrix(1,0,0,1,0,0)"><svg width="395.52" viewBox="0.550000011920929 -36.20320510864258 1226.2899169921875 46.50755310058594" height="15.000284135059745" data-palette-color="#ed1703"><path d="M5.45-1.5L5.45-1.5Q5.05-0.5 4.08-0.1 3.1 0.3 2.13-0.1 1.15-0.5 0.75-1.48 0.35-2.45 0.75-3.4L0.75-3.4Q1.75-5.85 3.38-10.85 5-15.85 5.7-17.6L5.7-17.6Q6.05-18.6 8.55-24.7L8.55-24.7Q10.9-30.7 12.2-34.45L12.2-34.45Q12.55-35.45 13.48-35.93 14.4-36.4 15.4-36.05L15.4-36.05Q15.85-35.9 16.2-35.6L16.2-35.6Q17.2-35.25 17.6-34.25L17.6-34.25 30.05-3.5Q30.45-2.5 30.05-1.53 29.65-0.55 28.68-0.15 27.7 0.25 26.73-0.15 25.75-0.55 25.35-1.5L25.35-1.5 21.6-11.2Q19.55-11.1 19.3-11.1L19.3-11.1Q12.55-10.85 8.7-10.85L8.7-10.85Q6.45-4.25 5.45-1.5L5.45-1.5ZM10.55-15.95L10.55-15.95Q14.75-16 19.55-16.15L19.55-16.15 15-27.15 10.55-15.95ZM47.02-2.4L47.02-2.4Q46.97-1.35 46.22-0.65 45.47 0.05 44.42 0 43.37-0.05 42.67-0.8 41.97-1.55 42.02-2.6L42.02-2.6Q42.22-9.25 42.22-12.7 42.22-16.15 42.12-23 42.02-29.85 42.02-33.3L42.02-33.3Q42.02-34.35 42.74-35.08 43.47-35.8 44.52-35.8 45.57-35.8 46.29-35.08 47.02-34.35 47.02-33.3L47.02-33.3Q47.02-29.85 47.12-23.5 47.22-17.15 47.19-11.98 47.17-6.8 47.02-2.4L47.02-2.4ZM66.63-2.4L66.63-2.4Q66.58-1.35 65.83-0.65 65.08 0.05 64.03 0 62.98-0.05 62.28-0.8 61.58-1.55 61.63-2.6L61.63-2.6Q61.83-9.25 61.83-12.7 61.83-16.15 61.73-23 61.63-29.85 61.63-33.3L61.63-33.3Q61.63-34.35 62.36-35.08 63.08-35.8 64.13-35.8 65.18-35.8 65.91-35.08 66.63-34.35 66.63-33.3L66.63-33.3Q66.63-29.85 66.73-23.5 66.83-17.15 66.81-11.98 66.78-6.8 66.63-2.4L66.63-2.4ZM94.75-0.35L94.75-0.35Q88.15 1.25 84.2-3L84.2-3Q81.05-6.25 80.3-11.35L80.3-11.35Q79.75-15.35 81.25-18.95L81.25-18.95Q83.05-23.55 86.95-25.75L86.95-25.75Q87.75-26.2 88.95-26.4L88.95-26.4Q89-26.4 89.65-26.45L89.65-26.45Q89.9-26.5 90.05-26.55L90.05-26.55Q90.8-26.7 91.55-26.4L91.55-26.4Q91.75-26.4 92.5-26.38 93.25-26.35 93.5-26.33 93.75-26.3 94.37-26.23 95-26.15 95.4-26.05L95.4-26.05 96.35-25.7Q96.95-25.5 97.5-25.2 98.05-24.9 98.7-24.5L98.7-24.5Q101.95-22.3 103.2-18.32 104.45-14.35 103.85-11.9L103.85-11.9Q103.4-9.2 102.25-6.88 101.1-4.55 99.07-2.75 97.05-0.95 94.75-0.35L94.75-0.35ZM93.2-5.55L93.2-5.55Q95.35-5.85 96.87-7.78 98.4-9.7 98.87-11.85 99.35-14 98.52-16.57 97.7-19.15 95.9-20.3L95.9-20.3Q95.35-20.7 95-20.88 94.65-21.05 94.17-21.18 93.7-21.3 93.42-21.3 93.15-21.3 92.25-21.35 91.35-21.4 90.65-21.45L90.65-21.45Q90.5-21.45 90.3-21.5L90.3-21.5Q89.75-21.45 89.7-21.45L89.7-21.45 89.35-21.35Q87.15-20.15 85.97-17.53 84.8-14.9 85.3-12.1L85.3-12.1Q85.85-8.7 87.75-6.95L87.75-6.95Q89.8-5.05 93.2-5.55L93.2-5.55ZM124.22 0L124.22 0Q123.27 0 122.52-0.5 121.77-1 121.52-1.8L121.52-1.8Q120.77-4.45 118.17-12.25L118.17-12.25Q115.92-18.95 114.87-23.3L114.87-23.3Q114.47-24.45 115.24-25.43 116.02-26.4 117.37-26.4L117.37-26.4Q119.27-26.4 119.77-24.4L119.77-24.4Q121.12-19.45 123.02-13.85L123.02-13.85Q123.77-11.5 124.02-9.95L124.02-9.95 125.17-13.45 125.87-15.55Q125.82-15.4 126.97-19L126.97-19Q127.27-19.9 127.57-20.88 127.87-21.85 128.22-22.85L128.22-22.85Q129.07-25.2 131.22-25.2L131.22-25.2Q132.27-25.2 132.94-24.6 133.62-24 134.12-22.6L134.12-22.6Q136.47-16 138.62-8.55L138.62-8.55 139.72-13.05Q140.12-14.85 140.62-16.95L140.62-16.95Q141.62-21.15 142.57-24.4L142.57-24.4Q142.82-25.35 143.47-25.9 144.12-26.45 144.92-26.45L144.92-26.45Q146.17-26.45 146.87-25.5 147.57-24.55 147.17-23.25L147.17-23.25Q147.12-23.15 146.77-21.45L146.77-21.45Q146.22-19 145.52-16.45L145.52-16.45 144.42-12.45Q142.52-5.35 141.67-2.85L141.67-2.85Q140.57 0 138.62 0L138.62 0Q137.57 0 136.77-0.65 135.97-1.3 135.57-2.45L135.57-2.45 134.77-4.9Q133.62-8.3 130.77-16.95L130.77-16.95 129.92-13.95Q127.62-6.05 127.12-3.8L127.12-3.8Q126.67-1.9 125.92-0.95 125.17 0 124.22 0L124.22 0ZM165.08 0L165.08 0Q161.38-0.65 159.73-3L159.73-3Q158.93-4.05 158.58-5.8L158.58-5.8 158.38-6.9Q158.28-7.4 158.18-7.7L158.18-7.7Q157.88-8.65 158.38-9.55 158.88-10.45 159.88-10.7 160.88-10.95 161.78-10.5 162.68-10.05 162.98-9.05L162.98-9.05Q163.13-8.5 163.28-7.8L163.28-7.8Q163.33-7.55 163.36-7.33 163.38-7.1 163.53-6.55L163.53-6.55Q163.68-5.9 164.23-5.45L164.23-5.45Q164.83-4.9 166.03-4.75L166.03-4.75Q168.03-4.35 170.33-4.85L170.33-4.85Q172.58-5.35 173.83-6.3L173.83-6.3Q174.73-7.1 174.58-7.95L174.58-7.95Q174.43-9.35 172.83-10.05L172.83-10.05Q171.83-10.5 167.63-11.25L167.63-11.25Q163.28-12.1 161.48-13.45L161.48-13.45Q158.18-15.9 159.33-20.75L159.33-20.75Q160.03-23.55 162.21-24.88 164.38-26.2 167.03-26.35L167.03-26.35Q169.28-26.45 171.61-25.83 173.93-25.2 175.58-24.1L175.58-24.1Q176.13-23.7 176.73-23.15 177.33-22.6 177.91-21.95 178.48-21.3 178.58-21.25L178.58-21.25Q179.33-20.5 179.33-19.53 179.33-18.55 178.61-17.82 177.88-17.1 176.86-17.1 175.83-17.1 175.08-17.8L175.08-17.8Q174.58-18.25 174.08-18.75L174.08-18.75 173.38-19.6Q173.08-19.85 172.68-20.1L172.68-20.1Q171.73-20.7 170.23-21.13 168.73-21.55 167.28-21.5L167.28-21.5Q164.63-21.35 164.23-19.65L164.23-19.65Q163.78-17.85 164.53-17.3L164.53-17.3Q165.43-16.65 168.58-16L168.58-16Q173.23-15.2 174.93-14.45L174.93-14.45Q179.03-12.6 179.58-8.5L179.58-8.5Q180.03-5.15 177.08-2.7L177.08-2.7Q174.83-0.85 171.38-0.15L171.38-0.15Q168.08 0.6 165.08 0L165.08 0ZM219.91 7.55L219.91 7.55Q219.91 8.6 219.16 9.3 218.41 10 217.36 10 216.31 10 215.61 9.25 214.91 8.5 214.91 7.45L214.91 7.45Q215.11-2.4 215.11-24L215.11-24Q215.11-25.05 215.84-25.78 216.56-26.5 217.61-26.5L217.61-26.5Q218.36-26.5 218.99-25.83 219.61-25.15 219.91-24.15L219.91-24.15 220.61-24.6Q223.61-26.4 226.56-26.55 229.51-26.7 231.86-25.25L231.86-25.25Q234.06-24 235.59-21.75 237.11-19.5 237.81-16.85L237.81-16.85Q238.36-14.95 238.41-12.8 238.46-10.65 237.86-8.8 237.26-6.95 236.11-5.15 234.96-3.35 232.89-2 230.81-0.65 228.11-0.15L228.11-0.15Q223.46 0.7 220.06-1.75L220.06-1.75Q220.01 2.9 219.91 7.55L219.91 7.55ZM227.21-5.05L227.21-5.05Q231.01-5.75 232.54-8.68 234.06-11.6 233.01-15.55L233.01-15.55Q231.96-19.45 229.36-20.9L229.36-20.9Q226.71-22.45 223.21-20.3L223.21-20.3Q221.61-19.35 221.36-19.05L221.36-19.05Q221.21-18.9 221.11-18.78 221.01-18.65 220.76-18.2L220.76-18.2 220.11-17.3 220.11-9.1Q220.36-8.85 220.51-8.55L220.51-8.55Q221.91-6.35 223.46-5.5 225.01-4.65 227.21-5.05L227.21-5.05ZM257.13-2.4L257.13-2.4Q257.08-1.35 256.33-0.65 255.58 0.05 254.53 0 253.48-0.05 252.78-0.8 252.08-1.55 252.13-2.6L252.13-2.6Q252.33-9.25 252.33-12.7 252.33-16.15 252.23-23 252.13-29.85 252.13-33.3L252.13-33.3Q252.13-34.35 252.86-35.08 253.58-35.8 254.63-35.8 255.68-35.8 256.41-35.08 257.13-34.35 257.13-33.3L257.13-33.3Q257.13-29.85 257.23-23.5 257.33-17.15 257.31-11.98 257.28-6.8 257.13-2.4L257.13-2.4ZM285.55-0.8L285.55-0.8Q283.75-0.1 281.47 0 279.2 0.1 277.25-0.53 275.3-1.15 273.8-2.45L273.8-2.45Q271.2-4.6 270.45-7.8 269.7-11 270.4-13.55 271.1-16.1 272.52-18.53 273.95-20.95 275.62-22.63 277.3-24.3 279.5-25.45 281.7-26.6 284.1-26.58 286.5-26.55 289.15-25.25L289.15-25.25Q289.55-25.05 290.02-24.65 290.5-24.25 290.85-23.95L290.85-23.95 291.5-23.3Q291.8-23 291.8-22.95L291.8-22.95Q292.6-22.25 292.65-21.15L292.65-21.15Q293.3-18.15 293.5-14.85 293.7-11.55 293.62-8.65 293.55-5.75 293.7-2.5L293.7-2.5Q293.75-1.5 293.05-0.75 292.35 0 291.3 0.05 290.25 0.1 289.5-0.6 288.75-1.3 288.7-2.3L288.7-2.3 288.7-3.05Q287.2-1.5 285.55-0.8L285.55-0.8ZM283.3-5.3L283.3-5.3Q284.05-5.5 284.5-5.7 284.95-5.9 285.62-6.3 286.3-6.7 287.05-7.3 287.8-7.9 288.4-8.8L288.4-8.8Q288.5-8.9 288.65-9L288.65-9Q288.65-15.75 287.8-19.85L287.8-19.85Q287.65-20.05 287.47-20.23 287.3-20.4 287.22-20.5 287.15-20.6 287.02-20.68 286.9-20.75 286.75-20.85L286.75-20.85Q284.35-22.15 281.7-20.93 279.05-19.7 277.05-16.35L277.05-16.35Q275.05-12.95 275.07-10.43 275.1-7.9 277-6.25L277-6.25Q278.15-5.3 279.85-5.05 281.55-4.8 283.3-5.3L283.3-5.3ZM307.81 10.05L307.81 10.05Q306.76 10.15 305.96 9.47 305.16 8.8 305.06 7.78 304.96 6.75 305.64 5.95 306.31 5.15 307.31 5.05L307.31 5.05Q307.81 5 308.51 4.95 309.21 4.9 309.44 4.88 309.66 4.85 310.01 4.78 310.36 4.7 310.56 4.55L310.56 4.55 311.06 4.25Q312.26 3.65 313.21 0.9L313.21 0.9Q313.51 0.05 313.81-0.3L313.81-0.3Q313.46-0.7 313.26-1.25L313.26-1.25Q312.36-5.1 309.56-12.65L309.56-12.65Q307.06-19.3 305.86-23.3L305.86-23.3Q305.56-24.3 306.06-25.2 306.56-26.1 307.56-26.4 308.56-26.7 309.46-26.2 310.36-25.7 310.66-24.7L310.66-24.7Q311.61-21.5 314.26-14.4L314.26-14.4 316.16-9.2Q319.66-19.9 322.56-25.25L322.56-25.25Q323.06-26.15 324.06-26.45 325.06-26.75 325.96-26.25 326.86-25.75 327.16-24.75 327.46-23.75 326.96-22.85L326.96-22.85Q325.66-20.45 324.26-17 322.86-13.55 322.06-11.2 321.26-8.85 319.96-4.65L319.96-4.65Q319.66-3.65 319.56-3.25L319.56-3.25Q319.31-2.6 318.86-0.65L318.86-0.65Q318.31 1.2 317.96 2.35L317.96 2.35Q316.56 6.25 314.16 8.15L314.16 8.15Q313.46 8.7 312.76 9.08 312.06 9.45 311.29 9.63 310.51 9.8 310.06 9.88 309.61 9.95 308.79 9.98 307.96 10 307.81 10.05L307.81 10.05ZM348.78 0.25L348.78 0.25Q345.08 0 342.33-1.25 339.58-2.5 338.13-4.4 336.68-6.3 336.03-7.9 335.38-9.5 335.23-11.08 335.08-12.65 335.38-15.15L335.38-15.15Q335.73-17.25 336.86-19.3 337.98-21.35 339.86-22.98 341.73-24.6 344.38-25.48 347.03-26.35 350.03-26L350.03-26Q352.93-25.65 354.98-24.43 357.03-23.2 358.48-21.3L358.48-21.3Q359.73-19.7 360.01-18.9 360.28-18.1 360.51-17.4 360.73-16.7 360.88-16.2 361.03-15.7 361.16-15.18 361.28-14.65 361.33-13.95L361.33-13.95Q361.38-13 360.98-12.2 360.58-11.4 359.78-10.95L359.78-10.95Q359.13-10.7 358.38-10.7L358.38-10.7 349.83-10.55Q340.83-10.5 340.83-10.35L340.83-10.35 340.68-10.35Q341.33-7.8 343.41-6.35 345.48-4.9 349.08-4.65L349.08-4.65Q351.03-4.55 352.33-4.85L352.33-4.85Q353.78-5.25 354.43-5.58 355.08-5.9 356.03-6.45L356.03-6.45Q356.98-6.8 357.93-6.35 358.88-5.9 359.23-4.95 359.58-4 359.16-3.1 358.73-2.2 357.83-1.7L357.83-1.7Q357.03-1.25 356.18-0.93 355.33-0.6 353.68-0.15 352.03 0.3 348.78 0.25L348.78 0.25ZM340.78-15.25L340.78-15.25Q343.68-15.4 355.83-15.55L355.83-15.55Q355.38-17.05 354.38-18.4L354.38-18.4Q352.38-20.7 349.43-21.05L349.43-21.05Q346.33-21.45 343.98-19.73 341.63-18 340.78-15.25L340.78-15.25ZM377.2 0L377.2 0Q376.2 0 375.45-0.68 374.7-1.35 374.7-2.5L374.7-2.5 374.6-12.7Q374.55-16.15 374.55-21.3L374.55-21.3 374.55-24.25Q374.55-25.4 375.25-26.05 375.95-26.7 376.95-26.7L376.95-26.7Q378-26.7 378.77-26.03 379.55-25.35 379.55-24.15L379.55-24.15 379.55-22.65Q380.1-23.85 381.6-24.7L381.6-24.7Q383.65-25.95 386.1-25.95L386.1-25.95Q387.95-25.95 388.95-25.35 389.95-24.75 389.95-23.2L389.95-23.2Q389.95-22.2 389.35-21.53 388.75-20.85 387.6-20.85L387.6-20.85Q383.4-20.85 381.8-19.7L381.8-19.7Q380.9-19.1 380.22-18.25 379.55-17.4 379.55-16.6L379.55-16.6 379.65-10.35 379.7-2.5Q379.7-1.35 378.95-0.68 378.2 0 377.2 0L377.2 0ZM406.41 0L406.41 0Q402.71-0.65 401.06-3L401.06-3Q400.26-4.05 399.91-5.8L399.91-5.8 399.71-6.9Q399.61-7.4 399.51-7.7L399.51-7.7Q399.21-8.65 399.71-9.55 400.21-10.45 401.21-10.7 402.21-10.95 403.11-10.5 404.01-10.05 404.31-9.05L404.31-9.05Q404.46-8.5 404.61-7.8L404.61-7.8Q404.66-7.55 404.69-7.33 404.71-7.1 404.86-6.55L404.86-6.55Q405.01-5.9 405.56-5.45L405.56-5.45Q406.16-4.9 407.36-4.75L407.36-4.75Q409.36-4.35 411.66-4.85L411.66-4.85Q413.91-5.35 415.16-6.3L415.16-6.3Q416.06-7.1 415.91-7.95L415.91-7.95Q415.76-9.35 414.16-10.05L414.16-10.05Q413.16-10.5 408.96-11.25L408.96-11.25Q404.61-12.1 402.81-13.45L402.81-13.45Q399.51-15.9 400.66-20.75L400.66-20.75Q401.36-23.55 403.54-24.88 405.71-26.2 408.36-26.35L408.36-26.35Q410.61-26.45 412.94-25.83 415.26-25.2 416.91-24.1L416.91-24.1Q417.46-23.7 418.06-23.15 418.66-22.6 419.24-21.95 419.81-21.3 419.91-21.25L419.91-21.25Q420.66-20.5 420.66-19.53 420.66-18.55 419.94-17.82 419.21-17.1 418.19-17.1 417.16-17.1 416.41-17.8L416.41-17.8Q415.91-18.25 415.41-18.75L415.41-18.75 414.71-19.6Q414.41-19.85 414.01-20.1L414.01-20.1Q413.06-20.7 411.56-21.13 410.06-21.55 408.61-21.5L408.61-21.5Q405.96-21.35 405.56-19.65L405.56-19.65Q405.11-17.85 405.86-17.3L405.86-17.3Q406.76-16.65 409.91-16L409.91-16Q414.56-15.2 416.26-14.45L416.26-14.45Q420.36-12.6 420.91-8.5L420.91-8.5Q421.36-5.15 418.41-2.7L418.41-2.7Q416.16-0.85 412.71-0.15L412.71-0.15Q409.41 0.6 406.41 0L406.41 0ZM464.55-0.15L464.55-0.15Q464.25-0.25 463.32-0.45 462.4-0.65 461.72-0.9 461.05-1.15 460.17-1.63 459.3-2.1 458.6-2.93 457.9-3.75 457.4-4.9L457.4-4.9Q456.85-6.25 456.7-10.2L456.7-10.2Q456.55-13.25 456.65-18.05L456.65-18.05Q456.65-18.95 456.7-21.05L456.7-21.05 456.3-21Q455.25-20.9 454.45-21.55 453.65-22.2 453.52-23.23 453.4-24.25 454.05-25.05 454.7-25.85 455.7-26L455.7-26 456.85-26.1Q456.9-28.75 457-31.45L457-31.45Q457.05-32.5 457.8-33.2 458.55-33.9 459.6-33.85 460.65-33.8 461.35-33.05 462.05-32.3 462-31.25L462-31.25 461.85-26.5 463.5-26.6Q464.55-26.65 465.32-26 466.1-25.35 466.17-24.3 466.25-23.25 465.6-22.48 464.95-21.7 463.9-21.6L463.9-21.6 461.7-21.5Q461.65-19.1 461.65-18L461.65-18Q461.55-13.3 461.7-10.35L461.7-10.35Q461.8-7.35 462-6.9 462.2-6.45 462.3-6.28 462.4-6.1 462.67-5.93 462.95-5.75 463.25-5.7 463.55-5.65 464.37-5.43 465.2-5.2 466.15-4.85L466.15-4.85Q467.1-4.55 467.57-3.63 468.05-2.7 467.72-1.73 467.4-0.75 466.47-0.28 465.55 0.2 464.55-0.15L464.55-0.15ZM493.16-0.35L493.16-0.35Q486.56 1.25 482.61-3L482.61-3Q479.46-6.25 478.71-11.35L478.71-11.35Q478.16-15.35 479.66-18.95L479.66-18.95Q481.46-23.55 485.36-25.75L485.36-25.75Q486.16-26.2 487.36-26.4L487.36-26.4Q487.41-26.4 488.06-26.45L488.06-26.45Q488.31-26.5 488.46-26.55L488.46-26.55Q489.21-26.7 489.96-26.4L489.96-26.4Q490.16-26.4 490.91-26.38 491.66-26.35 491.91-26.33 492.16-26.3 492.79-26.23 493.41-26.15 493.81-26.05L493.81-26.05 494.76-25.7Q495.36-25.5 495.91-25.2 496.46-24.9 497.11-24.5L497.11-24.5Q500.36-22.3 501.61-18.32 502.86-14.35 502.26-11.9L502.26-11.9Q501.81-9.2 500.66-6.88 499.51-4.55 497.49-2.75 495.46-0.95 493.16-0.35L493.16-0.35ZM491.61-5.55L491.61-5.55Q493.76-5.85 495.29-7.78 496.81-9.7 497.29-11.85 497.76-14 496.94-16.57 496.11-19.15 494.31-20.3L494.31-20.3Q493.76-20.7 493.41-20.88 493.06-21.05 492.59-21.18 492.11-21.3 491.84-21.3 491.56-21.3 490.66-21.35 489.76-21.4 489.06-21.45L489.06-21.45Q488.91-21.45 488.71-21.5L488.71-21.5Q488.16-21.45 488.11-21.45L488.11-21.45 487.76-21.35Q485.56-20.15 484.39-17.53 483.21-14.9 483.71-12.1L483.71-12.1Q484.26-8.7 486.16-6.95L486.16-6.95Q488.21-5.05 491.61-5.55L491.61-5.55ZM543.14-2.4L543.14-2.4Q543.09-1.35 542.34-0.65 541.59 0.05 540.54 0 539.49-0.05 538.79-0.8 538.09-1.55 538.14-2.6L538.14-2.6Q538.34-9.25 538.34-12.7 538.34-16.15 538.24-23 538.14-29.85 538.14-33.3L538.14-33.3Q538.14-34.35 538.87-35.08 539.59-35.8 540.64-35.8 541.69-35.8 542.42-35.08 543.14-34.35 543.14-33.3L543.14-33.3Q543.14-29.85 543.24-23.5 543.34-17.15 543.32-11.98 543.29-6.8 543.14-2.4L543.14-2.4ZM558.06-2.4L558.06-2.4Q557.96-6.15 558.09-13.9 558.21-21.65 558.21-24.05L558.21-24.05Q558.21-25.1 558.94-25.83 559.66-26.55 560.71-26.55 561.76-26.55 562.49-25.83 563.21-25.1 563.21-24.05L563.21-24.05Q563.21-21.65 563.09-13.95 562.96-6.25 563.06-2.5L563.06-2.5Q563.06-1.45 562.36-0.7 561.66 0.05 560.61 0.05 559.56 0.05 558.81-0.65 558.06-1.35 558.06-2.4L558.06-2.4ZM562.71-35.2L562.71-35.2Q563.56-34.35 563.56-33.1 563.56-31.85 562.71-31 561.86-30.15 560.61-30.15 559.36-30.15 558.51-31 557.66-31.85 557.66-33.1 557.66-34.35 558.51-35.2 559.36-36.05 560.64-36.08 561.91-36.1 562.71-35.2L562.71-35.2ZM580.83 0L580.83 0Q579.83 0 579.08-0.68 578.33-1.35 578.33-2.5L578.33-2.5Q578.33-6.45 578.28-9.3L578.28-9.3Q578.18-17.8 578.18-24.05L578.18-24.05Q578.18-25.2 578.88-25.85 579.58-26.5 580.58-26.5L580.58-26.5Q581.63-26.5 582.4-25.83 583.18-25.15 583.18-23.95L583.18-23.95 583.18-22.4Q586.28-26.45 591.33-26.45L591.33-26.45Q595.68-26.45 598-23.4 600.33-20.35 600.33-15.2L600.33-15.2Q600.33-9.5 600.18-7.7L600.18-7.7 599.93-4.35 599.78-2.2Q599.68-1.2 598.98-0.6 598.28 0 597.33 0L597.33 0Q596.33 0 595.58-0.68 594.83-1.35 594.83-2.5L594.83-2.5Q594.83-3.3 595.18-8.05L595.18-8.05Q595.43-11.3 595.43-13.15L595.43-13.15Q595.43-17.4 594.23-19.43 593.03-21.45 590.53-21.45L590.53-21.45Q588.73-21.45 586.8-20.35 584.88-19.25 583.18-17.55L583.18-17.55 583.28-10.45 583.33-2.5Q583.33-1.35 582.58-0.68 581.83 0 580.83 0L580.83 0ZM631.94-0.8L631.94-0.8Q626.19-7.15 623.04-12.7L623.04-12.7 620.34-10.45Q620.24-10.35 620.14-10.3L620.14-10.3Q620.04-6.4 619.84-2.35L619.84-2.35Q619.79-1.3 619.02-0.6 618.24 0.1 617.22 0.05 616.19 0 615.49-0.78 614.79-1.55 614.84-2.55L614.84-2.55Q615.39-14.05 615.39-33.3L615.39-33.3Q615.39-34.35 616.12-35.08 616.84-35.8 617.89-35.8 618.94-35.8 619.67-35.08 620.39-34.35 620.39-33.3L620.39-33.3Q620.39-23.5 620.29-16.9L620.29-16.9Q627.59-23 630.39-25.7L630.39-25.7Q631.04-26.5 632.09-26.55 633.14-26.6 633.92-25.93 634.69-25.25 634.74-24.2 634.79-23.15 634.09-22.4L634.09-22.4Q631.59-19.95 626.94-15.95L626.94-15.95Q629.94-10.45 635.64-4.1L635.64-4.1Q636.34-3.35 636.29-2.33 636.24-1.3 635.47-0.6 634.69 0.1 633.67 0.05 632.64 0 631.94-0.8L631.94-0.8ZM700.13-2.2L700.13-2.2Q700.08-3.1 700-3.88 699.93-4.65 699.9-5.03 699.88-5.4 699.85-5.68 699.83-5.95 699.83-6.3L699.83-6.3 699.83-9.15Q699.83-9.95 699.9-11.98 699.98-14 699.95-15.4 699.93-16.8 699.68-18.05L699.68-18.05Q699.38-19.8 698.63-20.58 697.88-21.35 696.33-21.35L696.33-21.35Q692.88-21.3 689.43-17.15L689.43-17.15Q689.58-15.65 689.58-11.35L689.58-11.35Q689.58-8.2 689.73-2.55L689.73-2.55Q689.78-1.55 689.05-0.8 688.33-0.05 687.3 0 686.28 0.05 685.53-0.68 684.78-1.4 684.73-2.45L684.73-2.45Q684.58-8.1 684.58-11.35L684.58-11.35 684.58-13.85Q684.58-14.1 684.55-14.9 684.53-15.7 684.5-16.07 684.48-16.45 684.4-17.07 684.33-17.7 684.25-18.18 684.18-18.65 684.03-19.1L684.03-19.1Q683.63-20.5 682.93-21.05L682.93-21.05Q682.18-21.65 680.68-21.5L680.68-21.5Q679.03-21.35 677.83-20.6L677.83-20.6Q676.68-19.85 675.48-18.2L675.48-18.2Q675.23-17.9 674.93-17.65L674.93-17.65Q675.13-7.65 674.93-2.4L674.93-2.4Q674.88-1.35 674.13-0.65 673.38 0.05 672.33 0 671.28-0.05 670.58-0.8 669.88-1.55 669.93-2.6L669.93-2.6Q670.03-8.15 670.03-9.73 670.03-11.3 669.9-16.98 669.78-22.65 669.78-24.25L669.78-24.25Q669.78-25 670.5-25.75 671.23-26.5 672.23-26.5 673.23-26.5 674.03-25.88 674.83-25.25 674.78-23.55L674.78-23.55Q677.03-26.2 680.28-26.5L680.28-26.5Q683.73-26.8 686.03-24.95L686.03-24.95Q687.23-24 688.18-22.3L688.18-22.3Q691.28-26.2 696.33-26.5L696.33-26.5Q700.03-26.55 702.28-24.2L702.28-24.2Q704.03-22.15 704.63-18.95L704.63-18.95Q704.88-17.45 704.93-15.68 704.98-13.9 704.9-11.68 704.83-9.45 704.83-9.15L704.83-9.15 704.83-6.4Q704.83-6.15 704.85-5.9 704.88-5.65 704.9-5.33 704.93-5 704.98-4.25 705.03-3.5 705.13-2.6L705.13-2.6Q705.18-1.55 704.5-0.78 703.83 0 702.8 0.08 701.78 0.15 701-0.53 700.23-1.2 700.13-2.2L700.13-2.2ZM733.49-0.8L733.49-0.8Q731.69-0.1 729.42 0 727.14 0.1 725.19-0.53 723.24-1.15 721.74-2.45L721.74-2.45Q719.14-4.6 718.39-7.8 717.64-11 718.34-13.55 719.04-16.1 720.47-18.53 721.89-20.95 723.57-22.63 725.24-24.3 727.44-25.45 729.64-26.6 732.04-26.58 734.44-26.55 737.09-25.25L737.09-25.25Q737.49-25.05 737.97-24.65 738.44-24.25 738.79-23.95L738.79-23.95 739.44-23.3Q739.74-23 739.74-22.95L739.74-22.95Q740.54-22.25 740.59-21.15L740.59-21.15Q741.24-18.15 741.44-14.85 741.64-11.55 741.57-8.65 741.49-5.75 741.64-2.5L741.64-2.5Q741.69-1.5 740.99-0.75 740.29 0 739.24 0.05 738.19 0.1 737.44-0.6 736.69-1.3 736.64-2.3L736.64-2.3 736.64-3.05Q735.14-1.5 733.49-0.8L733.49-0.8ZM731.24-5.3L731.24-5.3Q731.99-5.5 732.44-5.7 732.89-5.9 733.57-6.3 734.24-6.7 734.99-7.3 735.74-7.9 736.34-8.8L736.34-8.8Q736.44-8.9 736.59-9L736.59-9Q736.59-15.75 735.74-19.85L735.74-19.85Q735.59-20.05 735.42-20.23 735.24-20.4 735.17-20.5 735.09-20.6 734.97-20.68 734.84-20.75 734.69-20.85L734.69-20.85Q732.29-22.15 729.64-20.93 726.99-19.7 724.99-16.35L724.99-16.35Q722.99-12.95 723.02-10.43 723.04-7.9 724.94-6.25L724.94-6.25Q726.09-5.3 727.79-5.05 729.49-4.8 731.24-5.3L731.24-5.3ZM768.11 0.1L768.11 0.1Q765.26 0.15 762.53-0.9 759.81-1.95 758.06-3.95L758.06-3.95Q756.26-6.05 755.68-8.97 755.11-11.9 755.63-14.55 756.16-17.2 757.41-19.65L757.41-19.65Q758.41-21.5 759.81-22.98 761.21-24.45 763.08-25.48 764.96-26.5 767.08-26.58 769.21-26.65 771.66-25.65L771.66-25.65Q772.96-25.05 774.31-23.75L774.31-23.75 775.91-22.15Q776.71-21.5 776.81-20.45 776.91-19.4 776.23-18.63 775.56-17.85 774.51-17.75 773.46-17.65 772.71-18.35L772.71-18.35Q772.26-18.7 771.66-19.3L771.66-19.3 770.81-20.15Q770.11-20.85 769.66-21.05L769.66-21.05Q767.41-22.05 765.36-21.03 763.31-20 761.86-17.3L761.86-17.3Q760.36-14.5 760.38-11.7 760.41-8.9 761.86-7.25L761.86-7.25Q762.76-6.2 764.46-5.55 766.16-4.9 768.06-4.9L768.06-4.9Q771.91-5 773.01-7.65L773.01-7.65 772.96-7.9 772.96-9.35Q773.01-10.4 773.78-11.08 774.56-11.75 775.61-11.7 776.66-11.65 777.33-10.88 778.01-10.1 777.96-9.05L777.96-9.05 777.96-7.95Q778.01-6.7 777.61-5.75L777.61-5.75Q776.46-2.85 773.83-1.4 771.21 0.05 768.11 0.1L768.11 0.1ZM812.68-2.4L812.68-2.4Q812.63-1.35 811.88-0.65 811.13 0.05 810.1 0.03 809.08 0 808.38-0.75 807.68-1.5 807.68-2.5L807.68-2.5Q807.68-2.55 807.98-7.2L807.98-7.2Q808.28-12.3 808.08-14.95L808.08-14.95Q807.63-21.2 803.48-21.5L803.48-21.5Q801.28-21.65 799.85-20.83 798.43-20 797.08-17.95L797.08-17.95Q796.98-17.8 796.68-17.25L796.68-17.25Q797.03-6.45 797.03-2.45L797.03-2.45Q797.03-1.4 796.3-0.68 795.58 0.05 794.53 0.05 793.48 0.05 792.75-0.68 792.03-1.4 792.03-2.45L792.03-2.45Q792.03-4.75 791.63-18L791.63-18Q791.33-27.95 791.53-33.8L791.53-33.8Q791.58-34.8 792.33-35.52 793.08-36.25 794.1-36.2 795.13-36.15 795.85-35.4 796.58-34.65 796.53-33.6L796.53-33.6Q796.48-32.25 796.48-23.15L796.48-23.15Q799.68-26.85 803.98-26.5L803.98-26.5Q812.28-25.8 813.08-15.35L813.08-15.35Q813.23-12.45 813.15-10.3 813.08-8.15 812.88-5.55 812.68-2.95 812.68-2.4L812.68-2.4ZM827.59-2.4L827.59-2.4Q827.49-6.15 827.62-13.9 827.74-21.65 827.74-24.05L827.74-24.05Q827.74-25.1 828.47-25.83 829.19-26.55 830.24-26.55 831.29-26.55 832.02-25.83 832.74-25.1 832.74-24.05L832.74-24.05Q832.74-21.65 832.62-13.95 832.49-6.25 832.59-2.5L832.59-2.5Q832.59-1.45 831.89-0.7 831.19 0.05 830.14 0.05 829.09 0.05 828.34-0.65 827.59-1.35 827.59-2.4L827.59-2.4ZM832.24-35.2L832.24-35.2Q833.09-34.35 833.09-33.1 833.09-31.85 832.24-31 831.39-30.15 830.14-30.15 828.89-30.15 828.04-31 827.19-31.85 827.19-33.1 827.19-34.35 828.04-35.2 828.89-36.05 830.17-36.08 831.44-36.1 832.24-35.2L832.24-35.2ZM850.36 0L850.36 0Q849.36 0 848.61-0.68 847.86-1.35 847.86-2.5L847.86-2.5Q847.86-6.45 847.81-9.3L847.81-9.3Q847.71-17.8 847.71-24.05L847.71-24.05Q847.71-25.2 848.41-25.85 849.11-26.5 850.11-26.5L850.11-26.5Q851.16-26.5 851.93-25.83 852.71-25.15 852.71-23.95L852.71-23.95 852.71-22.4Q855.81-26.45 860.86-26.45L860.86-26.45Q865.21-26.45 867.53-23.4 869.86-20.35 869.86-15.2L869.86-15.2Q869.86-9.5 869.71-7.7L869.71-7.7 869.46-4.35 869.31-2.2Q869.21-1.2 868.51-0.6 867.81 0 866.86 0L866.86 0Q865.86 0 865.11-0.68 864.36-1.35 864.36-2.5L864.36-2.5Q864.36-3.3 864.71-8.05L864.71-8.05Q864.96-11.3 864.96-13.15L864.96-13.15Q864.96-17.4 863.76-19.43 862.56-21.45 860.06-21.45L860.06-21.45Q858.26-21.45 856.33-20.35 854.41-19.25 852.71-17.55L852.71-17.55 852.81-10.45 852.86-2.5Q852.86-1.35 852.11-0.68 851.36 0 850.36 0L850.36 0ZM896.72 0.25L896.72 0.25Q893.02 0 890.27-1.25 887.52-2.5 886.07-4.4 884.62-6.3 883.97-7.9 883.32-9.5 883.17-11.08 883.02-12.65 883.32-15.15L883.32-15.15Q883.67-17.25 884.8-19.3 885.92-21.35 887.8-22.98 889.67-24.6 892.32-25.48 894.97-26.35 897.97-26L897.97-26Q900.87-25.65 902.92-24.43 904.97-23.2 906.42-21.3L906.42-21.3Q907.67-19.7 907.95-18.9 908.22-18.1 908.45-17.4 908.67-16.7 908.82-16.2 908.97-15.7 909.1-15.18 909.22-14.65 909.27-13.95L909.27-13.95Q909.32-13 908.92-12.2 908.52-11.4 907.72-10.95L907.72-10.95Q907.07-10.7 906.32-10.7L906.32-10.7 897.77-10.55Q888.77-10.5 888.77-10.35L888.77-10.35 888.62-10.35Q889.27-7.8 891.35-6.35 893.42-4.9 897.02-4.65L897.02-4.65Q898.97-4.55 900.27-4.85L900.27-4.85Q901.72-5.25 902.37-5.58 903.02-5.9 903.97-6.45L903.97-6.45Q904.92-6.8 905.87-6.35 906.82-5.9 907.17-4.95 907.52-4 907.1-3.1 906.67-2.2 905.77-1.7L905.77-1.7Q904.97-1.25 904.12-0.93 903.27-0.6 901.62-0.15 899.97 0.3 896.72 0.25L896.72 0.25ZM888.72-15.25L888.72-15.25Q891.62-15.4 903.77-15.55L903.77-15.55Q903.32-17.05 902.32-18.4L902.32-18.4Q900.32-20.7 897.37-21.05L897.37-21.05Q894.27-21.45 891.92-19.73 889.57-18 888.72-15.25L888.72-15.25ZM927.84 0L927.84 0Q924.14-0.65 922.49-3L922.49-3Q921.69-4.05 921.34-5.8L921.34-5.8 921.14-6.9Q921.04-7.4 920.94-7.7L920.94-7.7Q920.64-8.65 921.14-9.55 921.64-10.45 922.64-10.7 923.64-10.95 924.54-10.5 925.44-10.05 925.74-9.05L925.74-9.05Q925.89-8.5 926.04-7.8L926.04-7.8Q926.09-7.55 926.12-7.33 926.14-7.1 926.29-6.55L926.29-6.55Q926.44-5.9 926.99-5.45L926.99-5.45Q927.59-4.9 928.79-4.75L928.79-4.75Q930.79-4.35 933.09-4.85L933.09-4.85Q935.34-5.35 936.59-6.3L936.59-6.3Q937.49-7.1 937.34-7.95L937.34-7.95Q937.19-9.35 935.59-10.05L935.59-10.05Q934.59-10.5 930.39-11.25L930.39-11.25Q926.04-12.1 924.24-13.45L924.24-13.45Q920.94-15.9 922.09-20.75L922.09-20.75Q922.79-23.55 924.97-24.88 927.14-26.2 929.79-26.35L929.79-26.35Q932.04-26.45 934.37-25.83 936.69-25.2 938.34-24.1L938.34-24.1Q938.89-23.7 939.49-23.15 940.09-22.6 940.67-21.95 941.24-21.3 941.34-21.25L941.34-21.25Q942.09-20.5 942.09-19.53 942.09-18.55 941.37-17.82 940.64-17.1 939.62-17.1 938.59-17.1 937.84-17.8L937.84-17.8Q937.34-18.25 936.84-18.75L936.84-18.75 936.14-19.6Q935.84-19.85 935.44-20.1L935.44-20.1Q934.49-20.7 932.99-21.13 931.49-21.55 930.04-21.5L930.04-21.5Q927.39-21.35 926.99-19.65L926.99-19.65Q926.54-17.85 927.29-17.3L927.29-17.3Q928.19-16.65 931.34-16L931.34-16Q935.99-15.2 937.69-14.45L937.69-14.45Q941.79-12.6 942.34-8.5L942.34-8.5Q942.79-5.15 939.84-2.7L939.84-2.7Q937.59-0.85 934.14-0.15L934.14-0.15Q930.84 0.6 927.84 0L927.84 0ZM985.97-0.15L985.97-0.15Q985.67-0.25 984.75-0.45 983.82-0.65 983.15-0.9 982.47-1.15 981.6-1.63 980.72-2.1 980.02-2.93 979.32-3.75 978.82-4.9L978.82-4.9Q978.27-6.25 978.12-10.2L978.12-10.2Q977.97-13.25 978.07-18.05L978.07-18.05Q978.07-18.95 978.12-21.05L978.12-21.05 977.72-21Q976.67-20.9 975.87-21.55 975.07-22.2 974.95-23.23 974.82-24.25 975.47-25.05 976.12-25.85 977.12-26L977.12-26 978.27-26.1Q978.32-28.75 978.42-31.45L978.42-31.45Q978.47-32.5 979.22-33.2 979.97-33.9 981.02-33.85 982.07-33.8 982.77-33.05 983.47-32.3 983.42-31.25L983.42-31.25 983.27-26.5 984.92-26.6Q985.97-26.65 986.75-26 987.52-25.35 987.6-24.3 987.67-23.25 987.02-22.48 986.37-21.7 985.32-21.6L985.32-21.6 983.12-21.5Q983.07-19.1 983.07-18L983.07-18Q982.97-13.3 983.12-10.35L983.12-10.35Q983.22-7.35 983.42-6.9 983.62-6.45 983.72-6.28 983.82-6.1 984.1-5.93 984.37-5.75 984.67-5.7 984.97-5.65 985.8-5.43 986.62-5.2 987.57-4.85L987.57-4.85Q988.52-4.55 989-3.63 989.47-2.7 989.15-1.73 988.82-0.75 987.9-0.28 986.97 0.2 985.97-0.15L985.97-0.15ZM1014.59-0.35L1014.59-0.35Q1007.99 1.25 1004.04-3L1004.04-3Q1000.89-6.25 1000.14-11.35L1000.14-11.35Q999.59-15.35 1001.09-18.95L1001.09-18.95Q1002.89-23.55 1006.79-25.75L1006.79-25.75Q1007.59-26.2 1008.79-26.4L1008.79-26.4Q1008.84-26.4 1009.49-26.45L1009.49-26.45Q1009.74-26.5 1009.89-26.55L1009.89-26.55Q1010.64-26.7 1011.39-26.4L1011.39-26.4Q1011.59-26.4 1012.34-26.38 1013.09-26.35 1013.34-26.33 1013.59-26.3 1014.22-26.23 1014.84-26.15 1015.24-26.05L1015.24-26.05 1016.19-25.7Q1016.79-25.5 1017.34-25.2 1017.89-24.9 1018.54-24.5L1018.54-24.5Q1021.79-22.3 1023.04-18.32 1024.29-14.35 1023.69-11.9L1023.69-11.9Q1023.24-9.2 1022.09-6.88 1020.94-4.55 1018.92-2.75 1016.89-0.95 1014.59-0.35L1014.59-0.35ZM1013.04-5.55L1013.04-5.55Q1015.19-5.85 1016.72-7.78 1018.24-9.7 1018.72-11.85 1019.19-14 1018.37-16.57 1017.54-19.15 1015.74-20.3L1015.74-20.3Q1015.19-20.7 1014.84-20.88 1014.49-21.05 1014.02-21.18 1013.54-21.3 1013.27-21.3 1012.99-21.3 1012.09-21.35 1011.19-21.4 1010.49-21.45L1010.49-21.45Q1010.34-21.45 1010.14-21.5L1010.14-21.5Q1009.59-21.45 1009.54-21.45L1009.54-21.45 1009.19-21.35Q1006.99-20.15 1005.82-17.53 1004.64-14.9 1005.14-12.1L1005.14-12.1Q1005.69-8.7 1007.59-6.95L1007.59-6.95Q1009.64-5.05 1013.04-5.55L1013.04-5.55ZM1049.21 10.25L1049.21 10.25Q1046.31 10.5 1043.63 9.6 1040.96 8.7 1039.21 6.45L1039.21 6.45Q1038.56 5.6 1038.13 4.35 1037.71 3.1 1038.21 2.18 1038.71 1.25 1039.68 0.95 1040.66 0.65 1041.58 1.15 1042.51 1.65 1042.81 2.6L1042.81 2.6Q1042.91 3 1043.06 3.68 1043.21 4.35 1044.16 5L1044.16 5Q1046.41 5.8 1049.11 5.7L1049.11 5.7Q1051.56 5.6 1052.86 4.67 1054.16 3.75 1054.51 2.55L1054.51 2.55Q1055.01 0.85 1055.31-2.85L1055.31-2.85Q1053.41-0.85 1049.56-0.45L1049.56-0.45Q1046.26-0.3 1043.63-1.38 1041.01-2.45 1039.48-4.45 1037.96-6.45 1037.26-8.9L1037.26-8.9Q1036.56-11.25 1036.76-14.8L1036.76-14.8Q1037.16-20.3 1041.06-23.65L1041.06-23.65Q1045.41-27.1 1051.56-26.1L1051.56-26.1Q1053.81-25.35 1055.11-24.3L1055.11-24.3Q1055.16-26.3 1057.01-26.75L1057.01-26.75Q1058.21-26.85 1058.93-26.2 1059.66-25.55 1059.81-24.55L1059.81-24.55Q1060.36-18.45 1060.46-9.65L1060.46-9.65Q1060.51-4.65 1060.16-1.3L1060.16-1.3Q1059.76 3.7 1057.81 6.18 1055.86 8.65 1053.91 9.33 1051.96 10 1049.21 10.25L1049.21 10.25ZM1049.21-5.55L1049.21-5.55Q1051.06-5.5 1052.06-6L1052.06-6Q1054.96-6.9 1055.41-10.75L1055.41-10.75Q1055.66-13.7 1055.16-16.4L1055.16-16.4Q1054.81-18.1 1053.11-19.35L1053.11-19.35Q1052.11-20.15 1050.56-20.4L1050.56-20.4Q1046.56-21.1 1044.41-19.2L1044.41-19.2Q1042.36-17.55 1042.06-14.35L1042.06-14.35Q1041.81-10.15 1043.71-7.8L1043.71-7.8Q1045.66-5.5 1049.21-5.55L1049.21-5.55ZM1087.62 0.25L1087.62 0.25Q1083.92 0 1081.17-1.25 1078.42-2.5 1076.97-4.4 1075.52-6.3 1074.87-7.9 1074.22-9.5 1074.07-11.08 1073.92-12.65 1074.22-15.15L1074.22-15.15Q1074.57-17.25 1075.7-19.3 1076.82-21.35 1078.7-22.98 1080.57-24.6 1083.22-25.48 1085.87-26.35 1088.87-26L1088.87-26Q1091.77-25.65 1093.82-24.43 1095.87-23.2 1097.32-21.3L1097.32-21.3Q1098.57-19.7 1098.85-18.9 1099.12-18.1 1099.35-17.4 1099.57-16.7 1099.72-16.2 1099.87-15.7 1100-15.18 1100.12-14.65 1100.17-13.95L1100.17-13.95Q1100.22-13 1099.82-12.2 1099.42-11.4 1098.62-10.95L1098.62-10.95Q1097.97-10.7 1097.22-10.7L1097.22-10.7 1088.67-10.55Q1079.67-10.5 1079.67-10.35L1079.67-10.35 1079.52-10.35Q1080.17-7.8 1082.25-6.35 1084.32-4.9 1087.92-4.65L1087.92-4.65Q1089.87-4.55 1091.17-4.85L1091.17-4.85Q1092.62-5.25 1093.27-5.58 1093.92-5.9 1094.87-6.45L1094.87-6.45Q1095.82-6.8 1096.77-6.35 1097.72-5.9 1098.07-4.95 1098.42-4 1098-3.1 1097.57-2.2 1096.67-1.7L1096.67-1.7Q1095.87-1.25 1095.02-0.93 1094.17-0.6 1092.52-0.15 1090.87 0.3 1087.62 0.25L1087.62 0.25ZM1079.62-15.25L1079.62-15.25Q1082.52-15.4 1094.67-15.55L1094.67-15.55Q1094.22-17.05 1093.22-18.4L1093.22-18.4Q1091.22-20.7 1088.27-21.05L1088.27-21.05Q1085.17-21.45 1082.82-19.73 1080.47-18 1079.62-15.25L1079.62-15.25ZM1121.69-0.15L1121.69-0.15Q1121.39-0.25 1120.46-0.45 1119.54-0.65 1118.86-0.9 1118.19-1.15 1117.31-1.63 1116.44-2.1 1115.74-2.93 1115.04-3.75 1114.54-4.9L1114.54-4.9Q1113.99-6.25 1113.84-10.2L1113.84-10.2Q1113.69-13.25 1113.79-18.05L1113.79-18.05Q1113.79-18.95 1113.84-21.05L1113.84-21.05 1113.44-21Q1112.39-20.9 1111.59-21.55 1110.79-22.2 1110.66-23.23 1110.54-24.25 1111.19-25.05 1111.84-25.85 1112.84-26L1112.84-26 1113.99-26.1Q1114.04-28.75 1114.14-31.45L1114.14-31.45Q1114.19-32.5 1114.94-33.2 1115.69-33.9 1116.74-33.85 1117.79-33.8 1118.49-33.05 1119.19-32.3 1119.14-31.25L1119.14-31.25 1118.99-26.5 1120.64-26.6Q1121.69-26.65 1122.46-26 1123.24-25.35 1123.31-24.3 1123.39-23.25 1122.74-22.48 1122.09-21.7 1121.04-21.6L1121.04-21.6 1118.84-21.5Q1118.79-19.1 1118.79-18L1118.79-18Q1118.69-13.3 1118.84-10.35L1118.84-10.35Q1118.94-7.35 1119.14-6.9 1119.34-6.45 1119.44-6.28 1119.54-6.1 1119.81-5.93 1120.09-5.75 1120.39-5.7 1120.69-5.65 1121.51-5.43 1122.34-5.2 1123.29-4.85L1123.29-4.85Q1124.24-4.55 1124.71-3.63 1125.19-2.7 1124.86-1.73 1124.54-0.75 1123.61-0.28 1122.69 0.2 1121.69-0.15L1121.69-0.15ZM1158.46-2.4L1158.46-2.4Q1158.41-1.35 1157.66-0.65 1156.91 0.05 1155.88 0.03 1154.86 0 1154.16-0.75 1153.46-1.5 1153.46-2.5L1153.46-2.5Q1153.46-2.55 1153.76-7.2L1153.76-7.2Q1154.06-12.3 1153.86-14.95L1153.86-14.95Q1153.41-21.2 1149.26-21.5L1149.26-21.5Q1147.06-21.65 1145.63-20.83 1144.21-20 1142.86-17.95L1142.86-17.95Q1142.76-17.8 1142.46-17.25L1142.46-17.25Q1142.81-6.45 1142.81-2.45L1142.81-2.45Q1142.81-1.4 1142.08-0.68 1141.36 0.05 1140.31 0.05 1139.26 0.05 1138.53-0.68 1137.81-1.4 1137.81-2.45L1137.81-2.45Q1137.81-4.75 1137.41-18L1137.41-18Q1137.11-27.95 1137.31-33.8L1137.31-33.8Q1137.36-34.8 1138.11-35.52 1138.86-36.25 1139.88-36.2 1140.91-36.15 1141.63-35.4 1142.36-34.65 1142.31-33.6L1142.31-33.6Q1142.26-32.25 1142.26-23.15L1142.26-23.15Q1145.46-26.85 1149.76-26.5L1149.76-26.5Q1158.06-25.8 1158.86-15.35L1158.86-15.35Q1159.01-12.45 1158.93-10.3 1158.86-8.15 1158.66-5.55 1158.46-2.95 1158.46-2.4L1158.46-2.4ZM1185.67 0.25L1185.67 0.25Q1181.97 0 1179.22-1.25 1176.47-2.5 1175.02-4.4 1173.57-6.3 1172.92-7.9 1172.27-9.5 1172.12-11.08 1171.97-12.65 1172.27-15.15L1172.27-15.15Q1172.62-17.25 1173.75-19.3 1174.87-21.35 1176.75-22.98 1178.62-24.6 1181.27-25.48 1183.92-26.35 1186.92-26L1186.92-26Q1189.82-25.65 1191.87-24.43 1193.92-23.2 1195.37-21.3L1195.37-21.3Q1196.62-19.7 1196.9-18.9 1197.17-18.1 1197.4-17.4 1197.62-16.7 1197.77-16.2 1197.92-15.7 1198.05-15.18 1198.17-14.65 1198.22-13.95L1198.22-13.95Q1198.27-13 1197.87-12.2 1197.47-11.4 1196.67-10.95L1196.67-10.95Q1196.02-10.7 1195.27-10.7L1195.27-10.7 1186.72-10.55Q1177.72-10.5 1177.72-10.35L1177.72-10.35 1177.57-10.35Q1178.22-7.8 1180.3-6.35 1182.37-4.9 1185.97-4.65L1185.97-4.65Q1187.92-4.55 1189.22-4.85L1189.22-4.85Q1190.67-5.25 1191.32-5.58 1191.97-5.9 1192.92-6.45L1192.92-6.45Q1193.87-6.8 1194.82-6.35 1195.77-5.9 1196.12-4.95 1196.47-4 1196.05-3.1 1195.62-2.2 1194.72-1.7L1194.72-1.7Q1193.92-1.25 1193.07-0.93 1192.22-0.6 1190.57-0.15 1188.92 0.3 1185.67 0.25L1185.67 0.25ZM1177.67-15.25L1177.67-15.25Q1180.57-15.4 1192.72-15.55L1192.72-15.55Q1192.27-17.05 1191.27-18.4L1191.27-18.4Q1189.27-20.7 1186.32-21.05L1186.32-21.05Q1183.22-21.45 1180.87-19.73 1178.52-18 1177.67-15.25L1177.67-15.25ZM1214.09 0L1214.09 0Q1213.09 0 1212.34-0.68 1211.59-1.35 1211.59-2.5L1211.59-2.5 1211.49-12.7Q1211.44-16.15 1211.44-21.3L1211.44-21.3 1211.44-24.25Q1211.44-25.4 1212.14-26.05 1212.84-26.7 1213.84-26.7L1213.84-26.7Q1214.89-26.7 1215.66-26.03 1216.44-25.35 1216.44-24.15L1216.44-24.15 1216.44-22.65Q1216.99-23.85 1218.49-24.7L1218.49-24.7Q1220.54-25.95 1222.99-25.95L1222.99-25.95Q1224.84-25.95 1225.84-25.35 1226.84-24.75 1226.84-23.2L1226.84-23.2Q1226.84-22.2 1226.24-21.53 1225.64-20.85 1224.49-20.85L1224.49-20.85Q1220.29-20.85 1218.69-19.7L1218.69-19.7Q1217.79-19.1 1217.11-18.25 1216.44-17.4 1216.44-16.6L1216.44-16.6 1216.54-10.35 1216.59-2.5Q1216.59-1.35 1215.84-0.68 1215.09 0 1214.09 0L1214.09 0Z" opacity="1" transform="matrix(1,0,0,1,0,0)" fill="#ed1703" class="undefined-text-1" data-fill-palette-color="secondary" id="text-1"></path></svg></g></svg></g></svg></g></svg></g><g></g></svg></g></svg></g></svg></g></svg></g><defs></defs></svg><rect width="395.52" height="247.2" fill="none" stroke="none" visibility="hidden"></rect></g></svg></g></svg>